<?xml version="1.0" encoding="UTF-8"?><svg id="a" xmlns="http://www.w3.org/2000/svg" viewBox="0 0 50 50"><path d="M31.32,23.45c.54-.02,1.09,0,1.63,0,1.14,0,2.28,.01,3.42,0,1.01-.02,1.73-.82,1.69-1.83-.03-.72-.68-1.62-1.79-1.61-1.58,.02-3.17,0-4.75,0-.34,0-.69,.01-1.03,0-.6-.04-.91-.62-.59-1.09,.16-.24,.41-.31,.69-.31,1.37,0,4.01,.02,5.38,0,.74-.01,1.27-.41,1.53-1.09,.24-.64,.15-1.27-.33-1.8-.37-.41-.84-.55-1.37-.55-.74,0-4.57,0-5.32,0-.33,0-.61-.11-.77-.43-.21-.43,.12-.94,.63-.95,.83-.02,3.49,0,4.32-.01,1.32-.04,2.12-1.44,1.47-2.59-.35-.62-.93-.89-1.64-.89-2.52,0-5.03,0-7.55,0-1.32,0-2.64,0-3.96,0-.69,0-4.81,1.53-6.13,1.62-2.36,0-4.72,0-7.08,0h-.37v15.58h.37c2.19,0,4.38,0,6.57,0,.04,.1,.28,.22,.4,.3,3.98,2.45,6.95,5.69,9.28,9.73,.37,.65,.77,1.29,1.19,1.98,.91-.73,1.44-1.63,1.69-2.69,.33-1.4,.02-2.69-.73-3.9-.71-1.13-1.38-2.29-2.06-3.44-.35-.59-.06-1.13,.62-1.16,.12,0,.24,0,.37,0,2.57,0,5.14,0,7.71,0,.32,0,.66-.02,.94-.14,.81-.34,1.2-1.15,1.02-1.98-.17-.76-.89-1.31-1.74-1.32-1.2,0-2.39,0-3.59,0-.14,0-.29-.01-.42-.07-.31-.14-.45-.45-.38-.77,.07-.33,.32-.55,.69-.56Z"/></svg>