<?xml version="1.0" encoding="UTF-8"?><svg id="a" xmlns="http://www.w3.org/2000/svg" viewBox="0 0 50 50"><path d="M27.49,34.88c-.97,1.23-.98,2.5-.18,3.83-.08,0-.13,.02-.19,.02-.96,0-1.93,.03-2.89-.04-1.61-.11-3.05-.68-4.3-1.71-.95-.79-1.21-1.19-1.82-2.39-.13-.36-.48-.76-1.41-.89h-4.38v-12.42h.25c1.7,0,3.39,0,5.09,0,.11,0,.9-.39,.98-.46,.84-.71,1.01-1.11,1.86-1.82,1.2-1,2.4-1.99,3.61-2.97,.99-.8,2-1.56,2.98-2.37,1.51-1.25,2.88-2.64,3.92-4.31,.27-.43,.55-.53,1.04-.36,.65,.22,1.05,.71,1.33,1.3,.38,.79,.44,1.64,.33,2.5-.26,2.03-1.29,3.7-2.44,5.32-.28,.39-.57,.56-1.05,.52-.56-.05-1.13-.02-1.7,0-1.33,.01-2.32,.62-2.9,1.8-.56,1.16-.37,2.27,.37,3.3,.04,.05,.08,.1,.13,.16-1.19,.6-1.93,1.54-1.93,2.9,0,1.35,.71,2.3,1.93,2.91-.78,.84-.98,1.84-.69,2.93,.3,1.09,1.06,1.79,2.05,2.27Z"/><path d="M32.21,28.54c-1.62,0-3.23,0-4.85,0-.88,0-1.57-.54-1.8-1.38-.29-1.06,.48-2.16,1.58-2.26,.15-.01,.3-.02,.45-.02,3.13,0,6.27,0,9.4,0,1.02,0,1.68,.69,1.86,1.34,.32,1.15-.53,2.31-1.73,2.32-1.26,0-2.51,0-3.77,0-.38,0-.76,0-1.14,0Z"/><path d="M31.9,23.57c-1.16,0-2.31,0-3.47,0-.86,0-1.68-.69-1.78-1.51-.13-1.02,.4-1.86,1.32-2.1,.15-.04,.31-.06,.47-.06,2.29,0,4.58,0,6.88,0,1.1,0,1.91,.83,1.9,1.93-.01,.89-.85,1.73-1.73,1.73-1.19,0-2.39,0-3.58,0Z"/><path d="M31.97,33.57c-1.16,0-2.33,0-3.49,0-.9,0-1.71-.74-1.79-1.63-.08-.97,.56-1.84,1.48-2,.14-.02,.28-.04,.43-.04,2.25,0,4.51,0,6.76,0,.96,0,1.71,.59,1.88,1.53,.21,1.21-.75,2.12-1.73,2.13-1.18,.01-2.35,0-3.53,0Z"/><path d="M31.52,34.95c.55,0,1.09,0,1.64,0,.71,0,1.29,.27,1.62,.9,.34,.66,.26,1.34-.15,1.96-.35,.53-.88,.79-1.51,.8-1.1,.01-2.2,0-3.29,0-.96,0-1.77-.76-1.84-1.67-.07-.96,.58-1.81,1.52-1.96,.34-.05,.7-.02,1.05-.02,.32,0,.65,0,.97,0Z"/></svg>